<svg width="22" height="22" viewBox="0 0 22 22" fill="none" xmlns="http://www.w3.org/2000/svg">
<path d="M4.58331 9.16665H6.41665C8.24998 9.16665 9.16665 8.24998 9.16665 6.41665V4.58331C9.16665 2.74998 8.24998 1.83331 6.41665 1.83331H4.58331C2.74998 1.83331 1.83331 2.74998 1.83331 4.58331V6.41665C1.83331 8.24998 2.74998 9.16665 4.58331 9.16665Z" stroke="#2A2A2A" stroke-width="1.375" stroke-miterlimit="10" stroke-linecap="round" stroke-linejoin="round"/>
<path d="M15.5833 9.16665H17.4166C19.25 9.16665 20.1666 8.24998 20.1666 6.41665V4.58331C20.1666 2.74998 19.25 1.83331 17.4166 1.83331H15.5833C13.75 1.83331 12.8333 2.74998 12.8333 4.58331V6.41665C12.8333 8.24998 13.75 9.16665 15.5833 9.16665Z" stroke="#2A2A2A" stroke-width="1.375" stroke-miterlimit="10" stroke-linecap="round" stroke-linejoin="round"/>
<path d="M15.5833 20.1666H17.4166C19.25 20.1666 20.1666 19.25 20.1666 17.4166V15.5833C20.1666 13.75 19.25 12.8333 17.4166 12.8333H15.5833C13.75 12.8333 12.8333 13.75 12.8333 15.5833V17.4166C12.8333 19.25 13.75 20.1666 15.5833 20.1666Z" stroke="#2A2A2A" stroke-width="1.375" stroke-miterlimit="10" stroke-linecap="round" stroke-linejoin="round"/>
<path d="M4.58331 20.1666H6.41665C8.24998 20.1666 9.16665 19.25 9.16665 17.4166V15.5833C9.16665 13.75 8.24998 12.8333 6.41665 12.8333H4.58331C2.74998 12.8333 1.83331 13.75 1.83331 15.5833V17.4166C1.83331 19.25 2.74998 20.1666 4.58331 20.1666Z" stroke="#2A2A2A" stroke-width="1.375" stroke-miterlimit="10" stroke-linecap="round" stroke-linejoin="round"/>
</svg>
