<svg width="22" height="22" viewBox="0 0 22 22" fill="none" xmlns="http://www.w3.org/2000/svg">
<path d="M1.8382 10.0843V8.251C1.8382 5.04266 3.67153 3.66766 6.42153 3.66766H15.5882C18.3382 3.66766 20.1715 5.04266 20.1715 8.251V13.751C20.1715 16.9593 18.3382 18.3343 15.5882 18.3343H11.0049" stroke="#202224" stroke-width="1.375" stroke-miterlimit="10" stroke-linecap="round" stroke-linejoin="round"/>
<path d="M11.0049 13.2907C12.2705 13.2907 13.2965 12.2647 13.2965 10.999C13.2965 9.73335 12.2705 8.70734 11.0049 8.70734C9.73921 8.70734 8.7132 9.73335 8.7132 10.999C8.7132 12.2647 9.73921 13.2907 11.0049 13.2907Z" stroke="#202224" stroke-width="1.375" stroke-miterlimit="10" stroke-linecap="round" stroke-linejoin="round"/>
<path d="M16.9632 8.70734V13.2907" stroke="#202224" stroke-width="1.375" stroke-miterlimit="10" stroke-linecap="round" stroke-linejoin="round"/>
<path d="M1.83777 14.2071H6.73279C7.31946 14.2071 7.7961 14.6837 7.7961 15.2704V16.4438" stroke="#202224" stroke-width="1.375" stroke-miterlimit="10" stroke-linecap="round" stroke-linejoin="round"/>
<path d="M2.95607 13.0899L1.83777 14.2082L2.95607 15.3265" stroke="#202224" stroke-width="1.375" stroke-miterlimit="10" stroke-linecap="round" stroke-linejoin="round"/>
<path d="M7.7961 19.0464H2.90108C2.31441 19.0464 1.83777 18.5697 1.83777 17.9831V16.8098" stroke="#202224" stroke-width="1.375" stroke-miterlimit="10" stroke-linecap="round" stroke-linejoin="round"/>
<path d="M6.67944 20.1667L7.79775 19.0484L6.67944 17.9301" stroke="#202224" stroke-width="1.375" stroke-miterlimit="10" stroke-linecap="round" stroke-linejoin="round"/>
</svg>
